<svg width="54" height="22" viewBox="0 0 54 22" fill="none" xmlns="http://www.w3.org/2000/svg">
<path fill-rule="evenodd" clip-rule="evenodd" d="M9.12534 5.03899L3.48952 15.3679C2.70528 16.8053 3.68559 18.6019 5.25409 18.6019H8.17569C8.71607 18.6019 9.23432 18.3748 9.61644 17.9704C9.99855 17.5661 10.2132 17.0177 10.2132 16.4459C10.2132 15.5084 10.9315 14.7483 11.8176 14.7483C12.7036 14.7483 13.4219 15.5084 13.4219 16.4459C13.4219 17.9182 12.8692 19.3302 11.8853 20.3712C10.9015 21.4123 9.56709 21.9971 8.17569 21.9971H5.25409C1.21552 21.9971 -1.30859 17.3711 0.710688 13.6703L6.34651 3.34137C8.77799 -1.11483 14.8569 -1.11342 17.2866 3.34339L17.2873 3.34471L24.7296 16.9481C26.3178 19.8628 30.5281 18.6705 30.5281 15.306V7.81471C30.5281 5.74212 31.3061 3.75442 32.6912 2.28887C34.0762 0.823333 35.9547 8.04387e-07 37.9135 8.04387e-07H52.3956C53.2817 8.04387e-07 54 0.760051 54 1.69762C54 2.63519 53.2817 3.39524 52.3956 3.39524H37.9135C36.8057 3.39524 35.7434 3.86086 34.9601 4.68967C34.1768 5.51848 33.7368 6.64258 33.7368 7.81471V15.306C33.7368 22.1448 25.1793 24.5686 21.9504 18.645L21.9498 18.644L14.5076 5.04064C13.3125 2.8475 10.3216 2.84659 9.12534 5.03899Z" fill="white"/>
<path fill-rule="evenodd" clip-rule="evenodd" d="M43.0915 9.64012C43.9775 9.64012 44.6958 10.4002 44.6958 11.3377V20.2995C44.6958 21.2371 43.9775 21.9971 43.0915 21.9971C42.2054 21.9971 41.4871 21.2371 41.4871 20.2995V11.3377C41.4871 10.4002 42.2054 9.64012 43.0915 9.64012Z" fill="white"/>
</svg>
